<svg width="697" height="78" viewBox="0 0 697 78" fill="none" xmlns="http://www.w3.org/2000/svg">
<g clip-path="url(#clip0_1_173)">
<path d="M226.756 44.7571C226.625 44.6819 226.494 44.6077 226.364 44.5304C225.894 44.2388 225.392 44.0019 224.869 43.8247C224.633 43.7439 224.401 43.6507 224.174 43.5454C223.987 43.462 223.788 43.4105 223.592 43.3497C222.82 43.1148 222.007 43.0375 221.222 42.8572C221.186 42.849 221.151 42.8397 221.115 42.8387C221.066 42.8366 221.02 42.8634 221.005 42.9128C220.973 43.0235 220.948 43.136 220.929 43.2497C220.924 43.2776 220.952 43.3219 220.976 43.3383C221.072 43.4033 221.175 43.4517 221.294 43.4723C221.683 43.5423 222.07 43.6176 222.458 43.6928C222.626 43.7247 222.793 43.7587 222.96 43.7958C223.02 43.8092 223.082 43.8257 223.137 43.8535C223.266 43.9194 223.402 43.9545 223.549 43.9658C223.637 43.973 223.727 43.9967 223.807 44.0338C224.257 44.2502 224.733 44.4047 225.198 44.584C225.307 44.6252 225.411 44.6767 225.511 44.7344C225.966 44.9961 226.419 45.2619 226.874 45.5277C227.043 45.6256 227.211 45.7266 227.379 45.8255C227.734 46.0336 228.117 46.1789 228.516 46.286C228.991 46.4138 229.464 46.5477 229.94 46.6755C230.217 46.7497 230.499 46.8043 230.792 46.8053C231.222 46.8074 231.637 46.8795 232.054 46.9516C232.363 47.0052 232.677 47.0443 232.99 47.0887L234.219 47.2638C234.326 47.2793 234.433 47.2937 234.54 47.305C234.777 47.3318 235.012 47.2978 235.246 47.2133C235.35 47.1731 235.458 47.144 235.567 47.1268C235.75 47.1031 235.885 47.0196 235.954 46.8331C235.981 46.759 236.029 46.7239 236.1 46.7177C236.411 46.693 236.721 46.6683 237.022 46.7456C237.117 46.7703 237.215 46.7868 237.312 46.8053C237.458 46.8371 237.61 46.814 237.74 46.7404C238.055 46.5622 238.379 46.5405 238.707 46.5766C239.346 46.6487 239.97 46.7723 240.586 46.932C241.089 47.0619 241.585 47.2164 242.094 47.3215C242.692 47.4451 243.276 47.6151 243.867 47.7645C244.401 47.9005 244.945 47.952 245.507 47.9047C245.899 47.8707 246.292 47.847 246.684 47.8016C247.233 47.7357 247.78 47.7213 248.327 47.6965C249.03 47.6656 249.733 47.61 250.435 47.4822C250.488 47.4719 250.546 47.4616 250.598 47.4688C250.625 47.473 250.649 47.5121 250.667 47.541C250.671 47.5502 250.644 47.5935 250.625 47.5997C250.312 47.7068 250.028 47.884 249.743 48.0602C249.402 48.2714 249.06 48.4816 248.72 48.6949C248.632 48.7505 248.541 48.8072 248.463 48.8773C248.397 48.9339 248.342 49.0016 248.299 49.0771C248.201 49.2595 248.308 49.4316 248.504 49.412C248.568 49.4038 248.631 49.3857 248.689 49.3584C248.758 49.3275 248.823 49.2853 248.888 49.2451C249.319 48.9793 249.752 48.7165 250.18 48.4456C250.517 48.2333 250.874 48.0953 251.25 48.0221C251.322 48.0077 251.394 47.9891 251.467 47.9788C252.208 47.8696 252.839 47.4946 253.406 46.9722C253.534 46.8443 253.688 46.7446 253.857 46.6796C253.968 46.6459 254.066 46.5782 254.136 46.4859C254.198 46.3997 254.291 46.3415 254.396 46.3242C254.518 46.3036 254.616 46.354 254.651 46.4715C254.672 46.5449 254.678 46.6219 254.668 46.6977C254.659 46.7735 254.634 46.8466 254.595 46.9125C254.445 47.1742 254.309 47.4451 254.123 47.6873C253.976 47.881 253.843 48.086 253.698 48.2817C253.429 48.6475 253.1 48.9453 252.737 49.2028C252.393 49.4437 252.031 49.6596 251.656 49.8488C251.42 49.9694 251.185 50.0951 250.951 50.2197C250.824 50.2894 250.709 50.3784 250.609 50.4835C250.486 50.6073 250.36 50.7275 250.231 50.8441C250.105 50.9631 249.962 51.0624 249.807 51.1388C249.731 51.1748 249.661 51.2274 249.591 51.2779C249.419 51.4005 249.253 51.5334 249.078 51.6498C248.805 51.8311 248.516 51.9692 248.204 52.0413C248.07 52.0722 247.933 52.1176 247.806 52.1783C247.651 52.2614 247.476 52.3019 247.3 52.2958C247.198 52.2889 247.097 52.3018 247.001 52.3339C246.351 52.5668 245.685 52.6574 245.018 52.7306C244.653 52.7718 244.287 52.7842 243.923 52.8161C243.613 52.8429 243.302 52.8759 242.992 52.9099C242.59 52.9542 242.189 53.0026 241.787 53.05C241.733 53.0562 241.68 53.0603 241.634 53.1056C241.47 53.2622 241.27 53.3045 241.067 53.3343C240.769 53.3764 240.467 53.3895 240.167 53.3735C240.003 53.3605 239.837 53.3713 239.676 53.4054C239.597 53.4278 239.515 53.4341 239.433 53.4238C239.352 53.4135 239.273 53.387 239.202 53.3457C239.141 53.3076 239.086 53.3127 239.023 53.3354C238.953 53.3611 238.882 53.3848 238.811 53.4116C238.545 53.5095 238.275 53.5713 237.999 53.5919C237.844 53.6043 237.69 53.63 237.534 53.6507C237.277 53.6836 237.028 53.6692 236.776 53.6239C235.962 53.4776 235.145 53.3423 234.327 53.2179C233.401 53.0788 232.469 52.9655 231.545 52.8223C231.076 52.7443 230.609 52.6481 230.147 52.5338C229.529 52.3875 228.914 52.2247 228.316 52.0125C227.963 51.8871 227.613 51.7555 227.264 51.6179C227.132 51.5642 227.005 51.4976 226.886 51.419C226.587 51.2253 226.289 51.0306 226 50.8214C225.768 50.6545 225.583 50.432 225.408 50.2033C225.313 50.0823 225.222 49.9586 225.135 49.8323C224.803 49.3481 224.368 48.9834 223.883 48.6763C223.581 48.4847 223.251 48.3487 222.925 48.2076C222.719 48.12 222.508 48.0458 222.301 47.9644C222.195 47.915 222.079 47.8911 221.961 47.8943C221.908 47.8953 221.857 47.9127 221.814 47.944C221.772 47.9754 221.74 48.0192 221.723 48.0695C221.705 48.1129 221.7 48.1612 221.711 48.2074C221.721 48.2535 221.746 48.2951 221.782 48.326C221.854 48.3899 221.937 48.4476 222.025 48.4868C222.245 48.5847 222.468 48.6722 222.693 48.7608C223.244 48.9782 223.755 49.2616 224.199 49.6572C224.286 49.7345 224.364 49.822 224.441 49.9086C224.471 49.9405 224.493 49.9807 224.516 50.0178C224.464 50.0652 224.413 50.0405 224.362 50.025C224.063 49.9292 223.744 49.9117 223.434 49.8643C222.998 49.7963 222.562 49.7324 222.125 49.6654C221.887 49.6238 221.653 49.5592 221.428 49.4728C220.849 49.2667 220.267 49.0607 219.69 48.8463C219.348 48.7196 219.01 48.5805 218.674 48.4383C218.239 48.255 217.807 48.0643 217.375 47.8748C217.179 47.7893 216.984 47.7017 216.79 47.611C216.476 47.4627 216.164 47.3102 215.85 47.1618C215.568 47.0299 215.283 46.9022 215.001 46.7713C214.725 46.6446 214.45 46.5189 214.178 46.387C213.929 46.2675 213.685 46.1397 213.437 46.0182C212.987 45.8018 212.54 45.5803 212.087 45.3732C211.758 45.214 211.452 45.0124 211.175 44.7736C210.507 44.2224 209.864 43.6425 209.246 43.0354C209.074 42.8665 208.888 42.714 208.708 42.5533C208.697 42.543 208.692 42.5244 208.684 42.51L208.759 42.4801C208.767 42.477 208.778 42.4801 208.786 42.4822C209.095 42.5399 209.402 42.611 209.692 42.7263C210.164 42.9139 210.624 43.1313 211.061 43.3899C211.513 43.6577 211.976 43.9071 212.462 44.108C212.967 44.3151 213.496 44.448 214.039 44.5356C214.121 44.545 214.203 44.5408 214.283 44.5232C214.339 44.5109 214.391 44.4855 214.435 44.449C214.553 44.3542 214.569 44.2017 214.472 44.1008C214.436 44.0616 214.391 44.0316 214.341 44.0132C214.248 43.9823 214.152 43.9637 214.055 43.9431C213.659 43.8628 213.264 43.7752 212.89 43.6289C212.514 43.4888 212.149 43.3208 211.798 43.1261C211.567 42.9942 211.339 42.8531 211.103 42.7284C210.639 42.4832 210.169 42.2493 209.665 42.0896C209.228 41.9485 208.774 41.8654 208.316 41.8423C208.072 41.831 207.827 41.8238 207.582 41.8135C207.492 41.8104 207.4 41.8094 207.31 41.798C207.214 41.7857 207.117 41.7713 207.045 41.6888C206.981 41.6167 206.89 41.5971 206.795 41.6322C206.699 41.6672 206.613 41.6445 206.528 41.6198C206.075 41.4867 205.628 41.3295 205.191 41.149C204.796 40.9841 204.401 40.8223 204.019 40.6307C203.899 40.5727 203.781 40.5091 203.667 40.4401C203.41 40.2794 203.157 40.1125 202.905 39.9476C202.631 39.7775 202.384 39.5682 202.171 39.3263C202.073 39.211 201.991 39.0791 201.903 38.9544C201.878 38.9173 201.861 38.872 201.834 38.837C201.797 38.7875 201.726 38.7473 201.721 38.6937C201.716 38.6144 201.752 38.5268 201.778 38.4444C201.801 38.3713 201.835 38.3002 201.865 38.228C201.964 37.9931 202.034 37.752 202.051 37.5007C202.058 37.4048 202.068 37.309 202.069 37.2142C202.077 36.7928 202.144 36.3766 202.232 35.9583C202.314 35.5585 202.432 35.1753 202.602 34.7992C202.934 34.0646 203.447 33.5731 204.205 33.3928C204.591 33.3001 204.97 33.2795 205.33 33.4299C205.396 33.4577 205.468 33.468 205.535 33.4928C205.774 33.5824 206.024 33.5979 206.283 33.567C206.714 33.5154 207.141 33.502 207.564 33.5597C208.01 33.6216 208.455 33.6906 208.88 33.8338C209.058 33.8925 209.23 33.9677 209.406 34.0296C209.489 34.0625 209.577 34.0833 209.666 34.0914C209.835 34.0986 209.942 33.9265 209.864 33.773C209.779 33.6132 209.641 33.4885 209.473 33.4207C209.153 33.2815 208.818 33.1785 208.476 33.1136C208.309 33.0796 208.14 33.0518 207.972 33.0209C207.434 32.9268 206.886 32.9126 206.344 32.9787C206.111 33.0065 205.889 32.9993 205.677 32.9127C205.644 32.8983 205.605 32.8983 205.574 32.8849C205.056 32.6654 204.516 32.7149 203.966 32.8633C203.903 32.8797 203.841 32.9034 203.777 32.9168C203.755 32.921 203.718 32.9137 203.733 32.8736C203.793 32.719 203.857 32.5655 203.982 32.4501C204.067 32.3708 204.148 32.2853 204.24 32.2173C204.442 32.0679 204.636 31.9082 204.813 31.7289C204.879 31.6602 204.965 31.6129 205.058 31.5929C205.295 31.5403 205.514 31.4363 205.733 31.3147C205.93 31.2045 206.15 31.1437 206.364 31.0777C206.44 31.053 206.527 31.0664 206.607 31.0777C206.731 31.0942 206.856 31.1169 206.978 31.1478C207.42 31.2611 207.864 31.3714 208.3 31.4981C208.584 31.5805 208.861 31.6805 209.135 31.7866C209.875 32.074 210.617 32.3563 211.376 32.5933C211.64 32.6757 211.909 32.7479 212.174 32.8251C212.543 32.9343 212.898 33.0807 213.241 33.2527C213.686 33.4773 214.127 33.7071 214.553 33.9677C215.01 34.2459 215.372 34.623 215.666 35.0763C215.82 35.3113 215.969 35.5503 216.13 35.777C216.445 36.222 216.823 36.6033 217.22 36.9639C217.312 37.0463 217.422 37.1102 217.528 37.1751C217.605 37.2225 217.693 37.239 217.789 37.2204C217.946 37.1905 218.048 37.0092 217.972 36.8701C217.924 36.7839 217.858 36.7088 217.779 36.6496C217.535 36.4673 217.325 36.2478 217.112 36.0314C216.854 35.7668 216.623 35.478 216.421 35.1691C216.397 35.1309 216.376 35.091 216.357 35.0496C216.353 35.0423 216.371 35.0125 216.378 35.0125C216.45 35.0125 216.522 35.0125 216.594 35.0187C217.095 35.0692 217.589 35.1752 218.066 35.335C218.311 35.4153 218.554 35.506 218.777 35.6389C219.083 35.8213 219.395 35.9943 219.694 36.187C219.934 36.3395 220.156 36.5208 220.392 36.6785C220.784 36.9422 221.165 37.2204 221.58 37.4481C221.603 37.4605 221.625 37.478 221.651 37.4842C221.897 37.548 222.1 37.6974 222.321 37.8118C222.478 37.8942 222.64 37.9684 222.799 38.0498C223.1 38.2054 223.391 38.3733 223.667 38.5722C224.116 38.8947 224.544 39.2429 224.971 39.5953C225.362 39.9188 225.752 40.2464 226.159 40.5493C226.509 40.81 226.876 41.0459 227.244 41.2808C228.027 41.7785 228.763 42.3359 229.401 43.0231C229.774 43.4249 230.186 43.7803 230.604 44.1286C230.782 44.2759 230.974 44.4068 231.165 44.5366C231.402 44.6963 231.639 44.856 231.885 44.9982C232.155 45.1527 232.431 45.297 232.714 45.4288C233.44 45.7709 234.115 46.2047 234.823 46.5828C234.853 46.5993 234.884 46.6178 234.913 46.6384C234.927 46.6487 234.935 46.6662 234.946 46.6796C234.922 46.694 234.898 46.7188 234.874 46.7188C234.748 46.7198 234.619 46.727 234.495 46.7105C234.173 46.6673 233.855 46.6127 233.535 46.5622C233.455 46.5498 233.376 46.5292 233.295 46.5251C232.833 46.4973 232.383 46.4128 231.932 46.3303C231.603 46.2668 231.27 46.2323 230.936 46.2273C230.683 46.2258 230.432 46.1918 230.187 46.1263C229.608 45.9718 229.031 45.8111 228.455 45.6473C228.197 45.5739 227.95 45.4687 227.718 45.334L226.746 44.7736C226.75 44.7694 226.753 44.7633 226.756 44.7571Z" fill="black"/>
<path d="M194.805 31.1014C194.945 31.1632 195.128 31.256 195.32 31.326C195.612 31.4342 195.909 31.5321 196.208 31.6248C196.499 31.7155 196.803 31.7526 197.114 31.7484C197.26 31.7484 197.406 31.7454 197.551 31.7361C197.995 31.7042 198.44 31.7315 198.876 31.8175C198.93 31.8278 198.984 31.8319 199.036 31.8463C199.118 31.869 199.196 31.8484 199.274 31.8051C199.416 31.7278 199.56 31.6578 199.704 31.5836C199.82 31.523 199.948 31.4869 200.079 31.4775C200.297 31.462 200.517 31.4414 200.735 31.4363C200.954 31.4311 201.169 31.4064 201.387 31.3415C201.627 31.2694 201.874 31.2312 202.119 31.1828C202.301 31.1457 202.478 31.0901 202.652 31.0149C203.022 30.8592 203.411 30.7559 203.809 30.7078C204.084 30.6707 204.354 30.7078 204.619 30.7594C204.738 30.782 204.767 30.8768 204.702 30.9963C204.613 31.1591 204.484 31.2961 204.327 31.394C203.948 31.631 203.639 31.9504 203.356 32.2986C203.287 32.3811 203.233 32.4744 203.194 32.5747C203.112 32.7839 202.986 32.9727 202.823 33.128C202.736 33.2187 202.646 33.3083 202.562 33.4021C202.493 33.4826 202.409 33.5482 202.314 33.5947C202.176 33.6586 202.098 33.7647 202.06 33.9244C202.012 34.1202 201.946 34.316 201.859 34.5014C201.684 34.8764 201.587 35.269 201.52 35.6698C201.477 35.9263 201.443 36.1839 201.398 36.4394C201.305 37.013 201.163 37.5776 200.974 38.127C200.933 38.2445 200.874 38.3599 200.809 38.4691C200.68 38.6855 200.378 38.7432 200.216 38.5783C200.142 38.4994 200.079 38.4115 200.027 38.3166C199.986 38.2446 199.956 38.1668 199.938 38.0858C199.865 37.7695 199.709 37.5078 199.522 37.2616C199.354 37.038 199.208 36.798 199.038 36.5754C198.84 36.3189 198.627 36.0767 198.423 35.8264C198.224 35.5831 198.026 35.3386 197.83 35.0928C197.724 34.9642 197.658 34.8072 197.641 34.6415C197.635 34.5797 197.605 34.5385 197.548 34.5189C197.096 34.3555 196.653 34.1681 196.22 33.9574C195.712 33.7204 195.21 33.4701 194.726 33.1878C194.397 32.9961 194.088 32.7664 193.775 32.548C193.44 32.3119 193.119 32.0563 192.814 31.7824C192.379 31.3935 191.989 30.957 191.651 30.4812C191.483 30.2463 191.321 30.0062 191.171 29.7589C190.783 29.1132 190.55 28.387 190.489 27.6365C190.432 27.1229 190.453 26.6037 190.55 26.0962C190.607 25.8221 190.67 25.5481 190.738 25.2761C190.762 25.1942 190.768 25.1079 190.753 25.0237C190.702 24.7464 190.756 24.4601 190.904 24.22C191.002 24.051 191.112 23.8883 191.234 23.7368C191.397 23.5328 191.624 23.4895 191.826 23.6101C191.894 23.6513 191.96 23.7028 192.008 23.7646C192.155 23.946 192.299 24.1314 192.431 24.3251C192.618 24.6002 192.617 24.9155 192.412 25.2009C192.326 25.33 192.259 25.4704 192.211 25.6181C192.178 25.7088 192.16 25.8046 192.132 25.8984C192.086 26.0601 192.06 26.2095 192.167 26.3548C192.215 26.4197 192.214 26.531 192.223 26.6237C192.23 26.7072 192.221 26.7947 192.218 26.8813C192.201 27.4911 192.328 28.0965 192.59 28.6472C192.715 28.911 192.851 29.1696 192.996 29.422C193.257 29.8754 193.602 30.2514 194.015 30.5543C194.26 30.7336 194.512 30.8995 194.805 31.1014Z" fill="black"/>
<path d="M-93.561 39.2603H-96.79V37.957H-93.561C-92.9357 37.957 -92.4294 37.8574 -92.042 37.6582C-91.6546 37.459 -91.3724 37.1823 -91.1953 36.8281C-91.0127 36.474 -90.9214 36.07 -90.9214 35.6162C-90.9214 35.2012 -91.0127 34.811 -91.1953 34.4458C-91.3724 34.0806 -91.6546 33.7873 -92.042 33.5659C-92.4294 33.339 -92.9357 33.2256 -93.561 33.2256H-96.4165V44H-98.0186V31.9141H-93.561C-92.6479 31.9141 -91.876 32.0718 -91.2451 32.3872C-90.6143 32.7026 -90.1356 33.1398 -89.8091 33.6987C-89.4826 34.2521 -89.3193 34.8857 -89.3193 35.5996C-89.3193 36.3743 -89.4826 37.0356 -89.8091 37.5835C-90.1356 38.1313 -90.6143 38.5492 -91.2451 38.8369C-91.876 39.1191 -92.6479 39.2603 -93.561 39.2603ZM-79.8794 31.9141H-78.2856V40.0903C-78.2856 40.9979 -78.4876 41.7533 -78.8916 42.3564C-79.2956 42.9596 -79.8324 43.4134 -80.502 43.7178C-81.166 44.0166 -81.8882 44.166 -82.6685 44.166C-83.4875 44.166 -84.229 44.0166 -84.8931 43.7178C-85.5516 43.4134 -86.0745 42.9596 -86.4619 42.3564C-86.8438 41.7533 -87.0347 40.9979 -87.0347 40.0903V31.9141H-85.4492V40.0903C-85.4492 40.7212 -85.333 41.2414 -85.1006 41.6509C-84.8682 42.0604 -84.5444 42.3647 -84.1294 42.564C-83.7088 42.7632 -83.2218 42.8628 -82.6685 42.8628C-82.1095 42.8628 -81.6226 42.7632 -81.2075 42.564C-80.7869 42.3647 -80.4604 42.0604 -80.228 41.6509C-79.9956 41.2414 -79.8794 40.7212 -79.8794 40.0903V31.9141ZM-70.8047 31.9141V44H-72.3818V31.9141H-70.8047ZM-66.9199 31.9141V33.2256H-76.2583V31.9141H-66.9199ZM-53.8008 40.9453C-53.8008 40.6631 -53.8451 40.4141 -53.9336 40.1982C-54.0166 39.9769 -54.166 39.7777 -54.3818 39.6006C-54.5921 39.4235 -54.8854 39.2547 -55.2617 39.0942C-55.6325 38.9338 -56.1029 38.7705 -56.6729 38.6045C-57.2705 38.4274 -57.8101 38.231 -58.2915 38.0151C-58.7729 37.7938 -59.1852 37.542 -59.5283 37.2598C-59.8714 36.9775 -60.1343 36.6538 -60.3169 36.2886C-60.4995 35.9233 -60.5908 35.5055 -60.5908 35.0352C-60.5908 34.5648 -60.494 34.1304 -60.3003 33.7319C-60.1066 33.3335 -59.8299 32.9876 -59.4702 32.6943C-59.105 32.3955 -58.6706 32.1631 -58.167 31.9971C-57.6634 31.8311 -57.1017 31.748 -56.4819 31.748C-55.5744 31.748 -54.8052 31.9224 -54.1743 32.271C-53.5379 32.6141 -53.0537 33.0651 -52.7217 33.624C-52.3896 34.1774 -52.2236 34.7695 -52.2236 35.4004H-53.8174C-53.8174 34.9466 -53.9142 34.5454 -54.1079 34.1968C-54.3016 33.8426 -54.5949 33.5659 -54.9878 33.3667C-55.3807 33.1619 -55.8787 33.0596 -56.4819 33.0596C-57.0519 33.0596 -57.5223 33.1453 -57.8931 33.3169C-58.2638 33.4884 -58.5405 33.7209 -58.7231 34.0142C-58.9002 34.3075 -58.9888 34.6423 -58.9888 35.0186C-58.9888 35.2731 -58.9362 35.5055 -58.8311 35.7158C-58.7204 35.9206 -58.5516 36.1115 -58.3247 36.2886C-58.0923 36.4657 -57.799 36.6289 -57.4448 36.7783C-57.0851 36.9277 -56.6562 37.0716 -56.1582 37.21C-55.472 37.4036 -54.8799 37.6195 -54.3818 37.8574C-53.8838 38.0954 -53.4743 38.3638 -53.1533 38.6626C-52.8268 38.9559 -52.5861 39.2907 -52.4312 39.667C-52.2707 40.0378 -52.1904 40.4583 -52.1904 40.9287C-52.1904 41.4212 -52.29 41.8667 -52.4893 42.2651C-52.6885 42.6636 -52.9735 43.0039 -53.3442 43.2861C-53.715 43.5684 -54.1605 43.7869 -54.6807 43.9419C-55.1953 44.0913 -55.7708 44.166 -56.4072 44.166C-56.9661 44.166 -57.5168 44.0885 -58.0591 43.9336C-58.5959 43.7786 -59.0856 43.5462 -59.5283 43.2363C-59.9655 42.9264 -60.3169 42.5446 -60.5825 42.0908C-60.8426 41.6315 -60.9727 41.1003 -60.9727 40.4971H-59.3789C-59.3789 40.9121 -59.2987 41.269 -59.1382 41.5679C-58.9777 41.8612 -58.7591 42.1047 -58.4824 42.2983C-58.2002 42.492 -57.882 42.6359 -57.5278 42.73C-57.1681 42.8185 -56.7946 42.8628 -56.4072 42.8628C-55.8483 42.8628 -55.3752 42.7853 -54.9878 42.6304C-54.6004 42.4754 -54.3071 42.2541 -54.1079 41.9663C-53.9032 41.6785 -53.8008 41.3382 -53.8008 40.9453ZM-40.3433 37.5752V38.3389C-40.3433 39.2464 -40.4567 40.0599 -40.6836 40.7793C-40.9105 41.4987 -41.237 42.1102 -41.6631 42.6138C-42.0892 43.1174 -42.6011 43.502 -43.1987 43.7676C-43.7909 44.0332 -44.4549 44.166 -45.1909 44.166C-45.9048 44.166 -46.5605 44.0332 -47.1582 43.7676C-47.7503 43.502 -48.265 43.1174 -48.7021 42.6138C-49.1338 42.1102 -49.4686 41.4987 -49.7065 40.7793C-49.9445 40.0599 -50.0635 39.2464 -50.0635 38.3389V37.5752C-50.0635 36.6676 -49.9473 35.8569 -49.7148 35.1431C-49.4769 34.4237 -49.1421 33.8122 -48.7104 33.3086C-48.2788 32.7995 -47.7669 32.4121 -47.1748 32.1465C-46.5771 31.8809 -45.9214 31.748 -45.2075 31.748C-44.4715 31.748 -43.8075 31.8809 -43.2153 32.1465C-42.6177 32.4121 -42.1058 32.7995 -41.6797 33.3086C-41.248 33.8122 -40.9188 34.4237 -40.6919 35.1431C-40.4595 35.8569 -40.3433 36.6676 -40.3433 37.5752ZM-41.9287 38.3389V37.5586C-41.9287 36.8392 -42.0034 36.2028 -42.1528 35.6494C-42.2967 35.096 -42.5098 34.6312 -42.792 34.2549C-43.0742 33.8786 -43.4201 33.5936 -43.8296 33.3999C-44.2336 33.2062 -44.6929 33.1094 -45.2075 33.1094C-45.7056 33.1094 -46.1566 33.2062 -46.5605 33.3999C-46.959 33.5936 -47.3021 33.8786 -47.5898 34.2549C-47.8721 34.6312 -48.0907 35.096 -48.2456 35.6494C-48.4006 36.2028 -48.478 36.8392 -48.478 37.5586V38.3389C-48.478 39.0638 -48.4006 39.7057 -48.2456 40.2646C-48.0907 40.818 -47.8693 41.2856 -47.5815 41.6675C-47.2882 42.0438 -46.9424 42.3288 -46.5439 42.5225C-46.14 42.7161 -45.689 42.813 -45.1909 42.813C-44.6707 42.813 -44.2087 42.7161 -43.8047 42.5225C-43.4007 42.3288 -43.0604 42.0438 -42.7837 41.6675C-42.5015 41.2856 -42.2884 40.818 -42.1445 40.2646C-42.0007 39.7057 -41.9287 39.0638 -41.9287 38.3389ZM-36.938 31.9141H-35.3857L-31.4263 41.7671L-27.4751 31.9141H-25.9146L-30.8286 44H-32.0405L-36.938 31.9141ZM-37.4443 31.9141H-36.0747L-35.8506 39.2852V44H-37.4443V31.9141ZM-26.7861 31.9141H-25.4165V44H-27.0103V39.2852L-26.7861 31.9141ZM-14.4243 42.6968V44H-20.8242V42.6968H-14.4243ZM-20.5005 31.9141V44H-22.1025V31.9141H-20.5005ZM-15.271 37.1104V38.4136H-20.8242V37.1104H-15.271ZM-14.5073 31.9141V33.2256H-20.8242V31.9141H-14.5073ZM-5.62158 31.9141V44H-7.22363V31.9141H-5.62158ZM-0.558105 37.3511V38.6626H-5.97021V37.3511H-0.558105ZM0.263672 31.9141V33.2256H-5.97021V31.9141H0.263672ZM4.39111 31.9141V44H2.78906V31.9141H4.39111ZM7.80469 31.9141H11.8057C12.7132 31.9141 13.4797 32.0524 14.105 32.3291C14.7358 32.6058 15.2145 33.0153 15.541 33.5576C15.873 34.0944 16.0391 34.7557 16.0391 35.5415C16.0391 36.0949 15.9256 36.6012 15.6987 37.0605C15.4774 37.5143 15.1564 37.9017 14.7358 38.2227C14.3208 38.5381 13.8228 38.7733 13.2417 38.9282L12.7935 39.1025H9.0332L9.0166 37.7993H11.8555C12.431 37.7993 12.9097 37.6997 13.2915 37.5005C13.6733 37.2957 13.9611 37.0218 14.1548 36.6787C14.3485 36.3356 14.4453 35.9565 14.4453 35.5415C14.4453 35.0767 14.354 34.6699 14.1714 34.3213C13.9888 33.9727 13.701 33.7043 13.3081 33.5161C12.9207 33.3224 12.4199 33.2256 11.8057 33.2256H9.40674V44H7.80469V31.9141ZM14.8687 44L11.9302 38.5215L13.5986 38.5132L16.5786 43.9004V44H14.8687ZM26.4585 42.6968V44H20.0586V42.6968H26.4585ZM20.3823 31.9141V44H18.7803V31.9141H20.3823ZM25.6118 37.1104V38.4136H20.0586V37.1104H25.6118ZM26.3755 31.9141V33.2256H20.0586V31.9141H26.3755ZM35.3774 31.9141V44H33.7754V31.9141H35.3774ZM48.0879 31.9141V44H46.4775L40.3931 34.6782V44H38.791V31.9141H40.3931L46.5024 41.2607V31.9141H48.0879ZM56.6997 31.9141L59.8374 37.9819L62.9834 31.9141H64.8013L60.6343 39.4844V44H59.0322V39.4844L54.8652 31.9141H56.6997ZM75.9097 37.5752V38.3389C75.9097 39.2464 75.7962 40.0599 75.5693 40.7793C75.3424 41.4987 75.016 42.1102 74.5898 42.6138C74.1637 43.1174 73.6519 43.502 73.0542 43.7676C72.4621 44.0332 71.798 44.166 71.062 44.166C70.3481 44.166 69.6924 44.0332 69.0947 43.7676C68.5026 43.502 67.988 43.1174 67.5508 42.6138C67.1191 42.1102 66.7843 41.4987 66.5464 40.7793C66.3084 40.0599 66.1895 39.2464 66.1895 38.3389V37.5752C66.1895 36.6676 66.3057 35.8569 66.5381 35.1431C66.776 34.4237 67.1108 33.8122 67.5425 33.3086C67.9741 32.7995 68.486 32.4121 69.0781 32.1465C69.6758 31.8809 70.3315 31.748 71.0454 31.748C71.7814 31.748 72.4455 31.8809 73.0376 32.1465C73.6353 32.4121 74.1471 32.7995 74.5732 33.3086C75.0049 33.8122 75.3341 34.4237 75.561 35.1431C75.7935 35.8569 75.9097 36.6676 75.9097 37.5752ZM74.3242 38.3389V37.5586C74.3242 36.8392 74.2495 36.2028 74.1001 35.6494C73.9562 35.096 73.7432 34.6312 73.4609 34.2549C73.1787 33.8786 72.8328 33.5936 72.4233 33.3999C72.0194 33.2062 71.5601 33.1094 71.0454 33.1094C70.5474 33.1094 70.0964 33.2062 69.6924 33.3999C69.2939 33.5936 68.9508 33.8786 68.6631 34.2549C68.3809 34.6312 68.1623 35.096 68.0073 35.6494C67.8524 36.2028 67.7749 36.8392 67.7749 37.5586V38.3389C67.7749 39.0638 67.8524 39.7057 68.0073 40.2646C68.1623 40.818 68.3836 41.2856 68.6714 41.6675C68.9647 42.0438 69.3105 42.3288 69.709 42.5225C70.113 42.7161 70.564 42.813 71.062 42.813C71.5822 42.813 72.0443 42.7161 72.4482 42.5225C72.8522 42.3288 73.1925 42.0438 73.4692 41.6675C73.7515 41.2856 73.9645 40.818 74.1084 40.2646C74.2523 39.7057 74.3242 39.0638 74.3242 38.3389ZM85.7231 31.9141H87.3169V40.0903C87.3169 40.9979 87.1149 41.7533 86.7109 42.3564C86.307 42.9596 85.7702 43.4134 85.1006 43.7178C84.4365 44.0166 83.7144 44.166 82.9341 44.166C82.1151 44.166 81.3735 44.0166 80.7095 43.7178C80.0509 43.4134 79.528 42.9596 79.1406 42.3564C78.7588 41.7533 78.5679 40.9979 78.5679 40.0903V31.9141H80.1533V40.0903C80.1533 40.7212 80.2695 41.2414 80.502 41.6509C80.7344 42.0604 81.0581 42.3647 81.4731 42.564C81.8937 42.7632 82.3807 42.8628 82.9341 42.8628C83.493 42.8628 83.98 42.7632 84.395 42.564C84.8156 42.3647 85.1421 42.0604 85.3745 41.6509C85.6069 41.2414 85.7231 40.7212 85.7231 40.0903V31.9141ZM90.332 31.9141H94.333C95.2406 31.9141 96.007 32.0524 96.6323 32.3291C97.2632 32.6058 97.7419 33.0153 98.0684 33.5576C98.4004 34.0944 98.5664 34.7557 98.5664 35.5415C98.5664 36.0949 98.453 36.6012 98.2261 37.0605C98.0047 37.5143 97.6838 37.9017 97.2632 38.2227C96.8481 38.5381 96.3501 38.7733 95.769 38.9282L95.3208 39.1025H91.5605L91.5439 37.7993H94.3828C94.9583 37.7993 95.437 37.6997 95.8188 37.5005C96.2007 37.2957 96.4884 37.0218 96.6821 36.6787C96.8758 36.3356 96.9727 35.9565 96.9727 35.5415C96.9727 35.0767 96.8813 34.6699 96.6987 34.3213C96.5161 33.9727 96.2284 33.7043 95.8354 33.5161C95.4481 33.3224 94.9473 33.2256 94.333 33.2256H91.9341V44H90.332V31.9141ZM97.396 44L94.4575 38.5215L96.126 38.5132L99.106 43.9004V44H97.396ZM110.333 38.3472H107.27L107.253 37.0605H110.034C110.493 37.0605 110.894 36.9831 111.237 36.8281C111.58 36.6732 111.846 36.4518 112.034 36.1641C112.228 35.8708 112.325 35.5221 112.325 35.1182C112.325 34.6755 112.239 34.3158 112.067 34.0391C111.901 33.7568 111.644 33.5521 111.295 33.4248C110.952 33.292 110.515 33.2256 109.984 33.2256H107.626V44H106.024V31.9141H109.984C110.604 31.9141 111.157 31.9777 111.644 32.105C112.131 32.2267 112.543 32.4204 112.881 32.686C113.224 32.9461 113.484 33.2782 113.661 33.6821C113.838 34.0861 113.927 34.5703 113.927 35.1348C113.927 35.6328 113.799 36.0838 113.545 36.4878C113.29 36.8862 112.936 37.2127 112.482 37.4673C112.034 37.7218 111.508 37.8851 110.905 37.957L110.333 38.3472ZM110.258 44H106.639L107.543 42.6968H110.258C110.767 42.6968 111.199 42.6082 111.553 42.4312C111.912 42.2541 112.186 42.005 112.375 41.6841C112.563 41.3576 112.657 40.973 112.657 40.5303C112.657 40.082 112.576 39.6947 112.416 39.3682C112.256 39.0417 112.004 38.7899 111.661 38.6128C111.318 38.4357 110.875 38.3472 110.333 38.3472H108.05L108.066 37.0605H111.188L111.528 37.5254C112.109 37.5752 112.601 37.7412 113.005 38.0234C113.409 38.3001 113.716 38.6543 113.927 39.0859C114.143 39.5176 114.25 39.9935 114.25 40.5137C114.25 41.2663 114.084 41.9027 113.752 42.4229C113.426 42.9375 112.964 43.3304 112.366 43.6016C111.769 43.8672 111.066 44 110.258 44ZM124.794 42.6968V44H118.395V42.6968H124.794ZM118.718 31.9141V44H117.116V31.9141H118.718ZM123.948 37.1104V38.4136H118.395V37.1104H123.948ZM124.711 31.9141V33.2256H118.395V31.9141H124.711ZM134.608 42.6968V44H128.565V42.6968H134.608ZM128.88 31.9141V44H127.278V31.9141H128.88ZM144.272 42.6968V44H138.229V42.6968H144.272ZM138.544 31.9141V44H136.942V31.9141H138.544ZM145.17 31.9141L148.308 37.9819L151.454 31.9141H153.272L149.105 39.4844V44H147.503V39.4844L143.336 31.9141H145.17Z" fill="black"/>
<path d="M681.439 39.2603H678.21V37.957H681.439C682.064 37.957 682.571 37.8574 682.958 37.6582C683.345 37.459 683.628 37.1823 683.805 36.8281C683.987 36.474 684.079 36.07 684.079 35.6162C684.079 35.2012 683.987 34.811 683.805 34.4458C683.628 34.0806 683.345 33.7873 682.958 33.5659C682.571 33.339 682.064 33.2256 681.439 33.2256H678.583V44H676.981V31.9141H681.439C682.352 31.9141 683.124 32.0718 683.755 32.3872C684.386 32.7026 684.864 33.1398 685.191 33.6987C685.517 34.2521 685.681 34.8857 685.681 35.5996C685.681 36.3743 685.517 37.0356 685.191 37.5835C684.864 38.1313 684.386 38.5492 683.755 38.8369C683.124 39.1191 682.352 39.2603 681.439 39.2603ZM695.121 31.9141H696.714V40.0903C696.714 40.9979 696.512 41.7533 696.108 42.3564C695.704 42.9596 695.168 43.4134 694.498 43.7178C693.834 44.0166 693.112 44.166 692.332 44.166C691.513 44.166 690.771 44.0166 690.107 43.7178C689.448 43.4134 688.925 42.9596 688.538 42.3564C688.156 41.7533 687.965 40.9979 687.965 40.0903V31.9141H689.551V40.0903C689.551 40.7212 689.667 41.2414 689.899 41.6509C690.132 42.0604 690.456 42.3647 690.871 42.564C691.291 42.7632 691.778 42.8628 692.332 42.8628C692.89 42.8628 693.377 42.7632 693.792 42.564C694.213 42.3647 694.54 42.0604 694.772 41.6509C695.004 41.2414 695.121 40.7212 695.121 40.0903V31.9141ZM704.195 31.9141V44H702.618V31.9141H704.195ZM708.08 31.9141V33.2256H698.742V31.9141H708.08ZM721.199 40.9453C721.199 40.6631 721.155 40.4141 721.066 40.1982C720.983 39.9769 720.834 39.7777 720.618 39.6006C720.408 39.4235 720.115 39.2547 719.738 39.0942C719.368 38.9338 718.897 38.7705 718.327 38.6045C717.729 38.4274 717.19 38.231 716.708 38.0151C716.227 37.7938 715.815 37.542 715.472 37.2598C715.129 36.9775 714.866 36.6538 714.683 36.2886C714.5 35.9233 714.409 35.5055 714.409 35.0352C714.409 34.5648 714.506 34.1304 714.7 33.7319C714.893 33.3335 715.17 32.9876 715.53 32.6943C715.895 32.3955 716.329 32.1631 716.833 31.9971C717.337 31.8311 717.898 31.748 718.518 31.748C719.426 31.748 720.195 31.9224 720.826 32.271C721.462 32.6141 721.946 33.0651 722.278 33.624C722.61 34.1774 722.776 34.7695 722.776 35.4004H721.183C721.183 34.9466 721.086 34.5454 720.892 34.1968C720.698 33.8426 720.405 33.5659 720.012 33.3667C719.619 33.1619 719.121 33.0596 718.518 33.0596C717.948 33.0596 717.478 33.1453 717.107 33.3169C716.736 33.4884 716.459 33.7209 716.277 34.0142C716.1 34.3075 716.011 34.6423 716.011 35.0186C716.011 35.2731 716.064 35.5055 716.169 35.7158C716.28 35.9206 716.448 36.1115 716.675 36.2886C716.908 36.4657 717.201 36.6289 717.555 36.7783C717.915 36.9277 718.344 37.0716 718.842 37.21C719.528 37.4036 720.12 37.6195 720.618 37.8574C721.116 38.0954 721.526 38.3638 721.847 38.6626C722.173 38.9559 722.414 39.2907 722.569 39.667C722.729 40.0378 722.81 40.4583 722.81 40.9287C722.81 41.4212 722.71 41.8667 722.511 42.2651C722.312 42.6636 722.027 43.0039 721.656 43.2861C721.285 43.5684 720.84 43.7869 720.319 43.9419C719.805 44.0913 719.229 44.166 718.593 44.166C718.034 44.166 717.483 44.0885 716.941 43.9336C716.404 43.7786 715.914 43.5462 715.472 43.2363C715.035 42.9264 714.683 42.5446 714.417 42.0908C714.157 41.6315 714.027 41.1003 714.027 40.4971H715.621C715.621 40.9121 715.701 41.269 715.862 41.5679C716.022 41.8612 716.241 42.1047 716.518 42.2983C716.8 42.492 717.118 42.6359 717.472 42.73C717.832 42.8185 718.205 42.8628 718.593 42.8628C719.152 42.8628 719.625 42.7853 720.012 42.6304C720.4 42.4754 720.693 42.2541 720.892 41.9663C721.097 41.6785 721.199 41.3382 721.199 40.9453ZM734.657 37.5752V38.3389C734.657 39.2464 734.543 40.0599 734.316 40.7793C734.09 41.4987 733.763 42.1102 733.337 42.6138C732.911 43.1174 732.399 43.502 731.801 43.7676C731.209 44.0332 730.545 44.166 729.809 44.166C729.095 44.166 728.439 44.0332 727.842 43.7676C727.25 43.502 726.735 43.1174 726.298 42.6138C725.866 42.1102 725.531 41.4987 725.293 40.7793C725.056 40.0599 724.937 39.2464 724.937 38.3389V37.5752C724.937 36.6676 725.053 35.8569 725.285 35.1431C725.523 34.4237 725.858 33.8122 726.29 33.3086C726.721 32.7995 727.233 32.4121 727.825 32.1465C728.423 31.8809 729.079 31.748 729.792 31.748C730.528 31.748 731.193 31.8809 731.785 32.1465C732.382 32.4121 732.894 32.7995 733.32 33.3086C733.752 33.8122 734.081 34.4237 734.308 35.1431C734.541 35.8569 734.657 36.6676 734.657 37.5752ZM733.071 38.3389V37.5586C733.071 36.8392 732.997 36.2028 732.847 35.6494C732.703 35.096 732.49 34.6312 732.208 34.2549C731.926 33.8786 731.58 33.5936 731.17 33.3999C730.766 33.2062 730.307 33.1094 729.792 33.1094C729.294 33.1094 728.843 33.2062 728.439 33.3999C728.041 33.5936 727.698 33.8786 727.41 34.2549C727.128 34.6312 726.909 35.096 726.754 35.6494C726.599 36.2028 726.522 36.8392 726.522 37.5586V38.3389C726.522 39.0638 726.599 39.7057 726.754 40.2646C726.909 40.818 727.131 41.2856 727.418 41.6675C727.712 42.0438 728.058 42.3288 728.456 42.5225C728.86 42.7161 729.311 42.813 729.809 42.813C730.329 42.813 730.791 42.7161 731.195 42.5225C731.599 42.3288 731.94 42.0438 732.216 41.6675C732.499 41.2856 732.712 40.818 732.855 40.2646C732.999 39.7057 733.071 39.0638 733.071 38.3389ZM738.062 31.9141H739.614L743.574 41.7671L747.525 31.9141H749.085L744.171 44H742.959L738.062 31.9141ZM737.556 31.9141H738.925L739.149 39.2852V44H737.556V31.9141ZM748.214 31.9141H749.583V44H747.99V39.2852L748.214 31.9141ZM760.576 42.6968V44H754.176V42.6968H760.576ZM754.5 31.9141V44H752.897V31.9141H754.5ZM759.729 37.1104V38.4136H754.176V37.1104H759.729ZM760.493 31.9141V33.2256H754.176V31.9141H760.493ZM769.378 31.9141V44H767.776V31.9141H769.378ZM774.442 37.3511V38.6626H769.03V37.3511H774.442ZM775.264 31.9141V33.2256H769.03V31.9141H775.264ZM779.391 31.9141V44H777.789V31.9141H779.391ZM782.805 31.9141H786.806C787.713 31.9141 788.48 32.0524 789.105 32.3291C789.736 32.6058 790.215 33.0153 790.541 33.5576C790.873 34.0944 791.039 34.7557 791.039 35.5415C791.039 36.0949 790.926 36.6012 790.699 37.0605C790.477 37.5143 790.156 37.9017 789.736 38.2227C789.321 38.5381 788.823 38.7733 788.242 38.9282L787.793 39.1025H784.033L784.017 37.7993H786.855C787.431 37.7993 787.91 37.6997 788.292 37.5005C788.673 37.2957 788.961 37.0218 789.155 36.6787C789.348 36.3356 789.445 35.9565 789.445 35.5415C789.445 35.0767 789.354 34.6699 789.171 34.3213C788.989 33.9727 788.701 33.7043 788.308 33.5161C787.921 33.3224 787.42 33.2256 786.806 33.2256H784.407V44H782.805V31.9141ZM789.869 44L786.93 38.5215L788.599 38.5132L791.579 43.9004V44H789.869ZM801.458 42.6968V44H795.059V42.6968H801.458ZM795.382 31.9141V44H793.78V31.9141H795.382ZM800.612 37.1104V38.4136H795.059V37.1104H800.612ZM801.375 31.9141V33.2256H795.059V31.9141H801.375ZM810.377 31.9141V44H808.775V31.9141H810.377ZM823.088 31.9141V44H821.478L815.393 34.6782V44H813.791V31.9141H815.393L821.502 41.2607V31.9141H823.088ZM831.7 31.9141L834.837 37.9819L837.983 31.9141H839.801L835.634 39.4844V44H834.032V39.4844L829.865 31.9141H831.7ZM850.91 37.5752V38.3389C850.91 39.2464 850.796 40.0599 850.569 40.7793C850.342 41.4987 850.016 42.1102 849.59 42.6138C849.164 43.1174 848.652 43.502 848.054 43.7676C847.462 44.0332 846.798 44.166 846.062 44.166C845.348 44.166 844.692 44.0332 844.095 43.7676C843.503 43.502 842.988 43.1174 842.551 42.6138C842.119 42.1102 841.784 41.4987 841.546 40.7793C841.308 40.0599 841.189 39.2464 841.189 38.3389V37.5752C841.189 36.6676 841.306 35.8569 841.538 35.1431C841.776 34.4237 842.111 33.8122 842.542 33.3086C842.974 32.7995 843.486 32.4121 844.078 32.1465C844.676 31.8809 845.332 31.748 846.045 31.748C846.781 31.748 847.445 31.8809 848.038 32.1465C848.635 32.4121 849.147 32.7995 849.573 33.3086C850.005 33.8122 850.334 34.4237 850.561 35.1431C850.793 35.8569 850.91 36.6676 850.91 37.5752ZM849.324 38.3389V37.5586C849.324 36.8392 849.25 36.2028 849.1 35.6494C848.956 35.096 848.743 34.6312 848.461 34.2549C848.179 33.8786 847.833 33.5936 847.423 33.3999C847.019 33.2062 846.56 33.1094 846.045 33.1094C845.547 33.1094 845.096 33.2062 844.692 33.3999C844.294 33.5936 843.951 33.8786 843.663 34.2549C843.381 34.6312 843.162 35.096 843.007 35.6494C842.852 36.2028 842.775 36.8392 842.775 37.5586V38.3389C842.775 39.0638 842.852 39.7057 843.007 40.2646C843.162 40.818 843.384 41.2856 843.671 41.6675C843.965 42.0438 844.311 42.3288 844.709 42.5225C845.113 42.7161 845.564 42.813 846.062 42.813C846.582 42.813 847.044 42.7161 847.448 42.5225C847.852 42.3288 848.193 42.0438 848.469 41.6675C848.751 41.2856 848.965 40.818 849.108 40.2646C849.252 39.7057 849.324 39.0638 849.324 38.3389ZM860.723 31.9141H862.317V40.0903C862.317 40.9979 862.115 41.7533 861.711 42.3564C861.307 42.9596 860.77 43.4134 860.101 43.7178C859.437 44.0166 858.714 44.166 857.934 44.166C857.115 44.166 856.374 44.0166 855.709 43.7178C855.051 43.4134 854.528 42.9596 854.141 42.3564C853.759 41.7533 853.568 40.9979 853.568 40.0903V31.9141H855.153V40.0903C855.153 40.7212 855.27 41.2414 855.502 41.6509C855.734 42.0604 856.058 42.3647 856.473 42.564C856.894 42.7632 857.381 42.8628 857.934 42.8628C858.493 42.8628 858.98 42.7632 859.395 42.564C859.816 42.3647 860.142 42.0604 860.375 41.6509C860.607 41.2414 860.723 40.7212 860.723 40.0903V31.9141ZM865.332 31.9141H869.333C870.241 31.9141 871.007 32.0524 871.632 32.3291C872.263 32.6058 872.742 33.0153 873.068 33.5576C873.4 34.0944 873.566 34.7557 873.566 35.5415C873.566 36.0949 873.453 36.6012 873.226 37.0605C873.005 37.5143 872.684 37.9017 872.263 38.2227C871.848 38.5381 871.35 38.7733 870.769 38.9282L870.321 39.1025H866.561L866.544 37.7993H869.383C869.958 37.7993 870.437 37.6997 870.819 37.5005C871.201 37.2957 871.488 37.0218 871.682 36.6787C871.876 36.3356 871.973 35.9565 871.973 35.5415C871.973 35.0767 871.881 34.6699 871.699 34.3213C871.516 33.9727 871.228 33.7043 870.835 33.5161C870.448 33.3224 869.947 33.2256 869.333 33.2256H866.934V44H865.332V31.9141ZM872.396 44L869.458 38.5215L871.126 38.5132L874.106 43.9004V44H872.396ZM885.333 38.3472H882.27L882.253 37.0605H885.034C885.493 37.0605 885.894 36.9831 886.237 36.8281C886.58 36.6732 886.846 36.4518 887.034 36.1641C887.228 35.8708 887.325 35.5221 887.325 35.1182C887.325 34.6755 887.239 34.3158 887.067 34.0391C886.901 33.7568 886.644 33.5521 886.295 33.4248C885.952 33.292 885.515 33.2256 884.984 33.2256H882.626V44H881.024V31.9141H884.984C885.604 31.9141 886.157 31.9777 886.644 32.105C887.131 32.2267 887.543 32.4204 887.881 32.686C888.224 32.9461 888.484 33.2782 888.661 33.6821C888.838 34.0861 888.927 34.5703 888.927 35.1348C888.927 35.6328 888.799 36.0838 888.545 36.4878C888.29 36.8862 887.936 37.2127 887.482 37.4673C887.034 37.7218 886.508 37.8851 885.905 37.957L885.333 38.3472ZM885.258 44H881.639L882.543 42.6968H885.258C885.767 42.6968 886.199 42.6082 886.553 42.4312C886.912 42.2541 887.186 42.005 887.375 41.6841C887.563 41.3576 887.657 40.973 887.657 40.5303C887.657 40.082 887.576 39.6947 887.416 39.3682C887.256 39.0417 887.004 38.7899 886.661 38.6128C886.318 38.4357 885.875 38.3472 885.333 38.3472H883.05L883.066 37.0605H886.188L886.528 37.5254C887.109 37.5752 887.601 37.7412 888.005 38.0234C888.409 38.3001 888.716 38.6543 888.927 39.0859C889.143 39.5176 889.25 39.9935 889.25 40.5137C889.25 41.2663 889.084 41.9027 888.752 42.4229C888.426 42.9375 887.964 43.3304 887.366 43.6016C886.769 43.8672 886.066 44 885.258 44ZM899.794 42.6968V44H893.395V42.6968H899.794ZM893.718 31.9141V44H892.116V31.9141H893.718ZM898.948 37.1104V38.4136H893.395V37.1104H898.948ZM899.711 31.9141V33.2256H893.395V31.9141H899.711ZM909.608 42.6968V44H903.565V42.6968H909.608ZM903.88 31.9141V44H902.278V31.9141H903.88ZM919.272 42.6968V44H913.229V42.6968H919.272ZM913.544 31.9141V44H911.942V31.9141H913.544ZM920.17 31.9141L923.308 37.9819L926.454 31.9141H928.272L924.105 39.4844V44H922.503V39.4844L918.336 31.9141H920.17Z" fill="black"/>
<path d="M613.756 44.7571C613.625 44.6819 613.494 44.6077 613.364 44.5304C612.894 44.2388 612.392 44.0019 611.869 43.8247C611.633 43.7439 611.401 43.6507 611.174 43.5454C610.987 43.462 610.788 43.4105 610.592 43.3497C609.819 43.1148 609.007 43.0375 608.222 42.8572C608.186 42.849 608.151 42.8397 608.115 42.8387C608.066 42.8366 608.02 42.8634 608.005 42.9128C607.973 43.0235 607.948 43.136 607.929 43.2497C607.924 43.2776 607.952 43.3219 607.976 43.3383C608.072 43.4033 608.175 43.4517 608.294 43.4723C608.683 43.5423 609.07 43.6176 609.458 43.6928C609.626 43.7247 609.793 43.7587 609.96 43.7958C610.02 43.8092 610.082 43.8257 610.137 43.8535C610.266 43.9194 610.402 43.9545 610.549 43.9658C610.637 43.973 610.727 43.9967 610.807 44.0338C611.257 44.2502 611.733 44.4047 612.198 44.584C612.307 44.6252 612.411 44.6767 612.511 44.7344C612.966 44.9961 613.419 45.2619 613.874 45.5277C614.043 45.6256 614.211 45.7266 614.379 45.8255C614.734 46.0336 615.117 46.1789 615.516 46.286C615.991 46.4138 616.464 46.5477 616.94 46.6755C617.217 46.7497 617.499 46.8043 617.792 46.8053C618.222 46.8074 618.637 46.8795 619.054 46.9516C619.363 47.0052 619.677 47.0443 619.99 47.0887L621.219 47.2638C621.326 47.2793 621.433 47.2937 621.54 47.305C621.777 47.3318 622.012 47.2978 622.246 47.2133C622.35 47.1731 622.458 47.144 622.567 47.1268C622.75 47.1031 622.885 47.0196 622.954 46.8331C622.981 46.759 623.029 46.7239 623.1 46.7177C623.411 46.693 623.721 46.6683 624.022 46.7456C624.117 46.7703 624.215 46.7868 624.312 46.8053C624.458 46.8371 624.61 46.814 624.74 46.7404C625.055 46.5622 625.379 46.5405 625.707 46.5766C626.346 46.6487 626.97 46.7723 627.586 46.932C628.089 47.0619 628.585 47.2164 629.094 47.3215C629.692 47.4451 630.276 47.6151 630.867 47.7645C631.401 47.9005 631.945 47.952 632.507 47.9047C632.899 47.8707 633.292 47.847 633.684 47.8016C634.233 47.7357 634.78 47.7213 635.327 47.6965C636.03 47.6656 636.733 47.61 637.435 47.4822C637.488 47.4719 637.546 47.4616 637.597 47.4688C637.625 47.473 637.649 47.5121 637.667 47.541C637.671 47.5502 637.644 47.5935 637.625 47.5997C637.312 47.7068 637.028 47.884 636.743 48.0602C636.402 48.2714 636.06 48.4816 635.72 48.6949C635.632 48.7505 635.541 48.8072 635.463 48.8773C635.397 48.9339 635.342 49.0016 635.299 49.0771C635.201 49.2595 635.308 49.4316 635.504 49.412C635.568 49.4038 635.631 49.3857 635.689 49.3584C635.758 49.3275 635.823 49.2853 635.888 49.2451C636.319 48.9793 636.752 48.7165 637.18 48.4456C637.517 48.2333 637.874 48.0953 638.25 48.0221C638.322 48.0077 638.394 47.9891 638.467 47.9788C639.208 47.8696 639.839 47.4946 640.406 46.9722C640.534 46.8443 640.688 46.7446 640.857 46.6796C640.968 46.6459 641.066 46.5782 641.136 46.4859C641.198 46.3997 641.291 46.3415 641.396 46.3242C641.518 46.3036 641.616 46.354 641.651 46.4715C641.672 46.5449 641.678 46.6219 641.668 46.6977C641.659 46.7735 641.634 46.8466 641.595 46.9125C641.445 47.1742 641.309 47.4451 641.123 47.6873C640.976 47.881 640.843 48.086 640.698 48.2817C640.429 48.6475 640.1 48.9453 639.737 49.2028C639.393 49.4437 639.031 49.6596 638.656 49.8488C638.42 49.9694 638.185 50.0951 637.951 50.2197C637.824 50.2894 637.708 50.3784 637.609 50.4835C637.486 50.6073 637.36 50.7275 637.231 50.8441C637.105 50.9631 636.962 51.0624 636.807 51.1388C636.731 51.1748 636.661 51.2274 636.591 51.2779C636.419 51.4005 636.253 51.5334 636.078 51.6498C635.805 51.8311 635.516 51.9692 635.204 52.0413C635.07 52.0722 634.933 52.1176 634.806 52.1783C634.651 52.2614 634.476 52.3019 634.299 52.2958C634.198 52.2889 634.097 52.3018 634.001 52.3339C633.351 52.5668 632.685 52.6574 632.018 52.7306C631.653 52.7718 631.287 52.7842 630.923 52.8161C630.613 52.8429 630.302 52.8759 629.992 52.9099C629.59 52.9542 629.189 53.0026 628.787 53.05C628.733 53.0562 628.68 53.0603 628.634 53.1056C628.47 53.2622 628.27 53.3045 628.067 53.3343C627.769 53.3764 627.467 53.3895 627.167 53.3735C627.003 53.3605 626.837 53.3713 626.676 53.4054C626.597 53.4278 626.515 53.4341 626.433 53.4238C626.352 53.4135 626.273 53.387 626.202 53.3457C626.141 53.3076 626.086 53.3127 626.023 53.3354C625.953 53.3611 625.882 53.3848 625.811 53.4116C625.545 53.5095 625.275 53.5713 624.999 53.5919C624.844 53.6043 624.69 53.63 624.534 53.6507C624.277 53.6836 624.028 53.6692 623.776 53.6239C622.961 53.4776 622.145 53.3423 621.327 53.2179C620.401 53.0788 619.469 52.9655 618.545 52.8223C618.076 52.7443 617.609 52.6481 617.147 52.5338C616.529 52.3875 615.914 52.2247 615.316 52.0125C614.963 51.8871 614.613 51.7555 614.264 51.6179C614.132 51.5642 614.005 51.4976 613.886 51.419C613.587 51.2253 613.289 51.0306 613 50.8214C612.768 50.6545 612.583 50.432 612.408 50.2033C612.313 50.0823 612.222 49.9586 612.135 49.8323C611.803 49.3481 611.368 48.9834 610.883 48.6763C610.581 48.4847 610.251 48.3487 609.925 48.2076C609.719 48.12 609.508 48.0458 609.301 47.9644C609.195 47.915 609.078 47.8911 608.961 47.8943C608.908 47.8953 608.857 47.9127 608.814 47.944C608.772 47.9754 608.74 48.0192 608.723 48.0695C608.704 48.1129 608.7 48.1612 608.711 48.2074C608.721 48.2535 608.746 48.2951 608.782 48.326C608.854 48.3899 608.937 48.4476 609.025 48.4868C609.245 48.5847 609.468 48.6722 609.693 48.7608C610.244 48.9782 610.755 49.2616 611.199 49.6572C611.286 49.7345 611.364 49.822 611.441 49.9086C611.471 49.9405 611.493 49.9807 611.516 50.0178C611.464 50.0652 611.413 50.0405 611.362 50.025C611.063 49.9292 610.744 49.9117 610.434 49.8643C609.998 49.7963 609.562 49.7324 609.125 49.6654C608.887 49.6238 608.653 49.5592 608.428 49.4728C607.849 49.2667 607.267 49.0607 606.69 48.8463C606.348 48.7196 606.01 48.5805 605.674 48.4383C605.239 48.255 604.807 48.0643 604.375 47.8748C604.179 47.7893 603.984 47.7017 603.79 47.611C603.476 47.4627 603.164 47.3102 602.849 47.1618C602.568 47.0299 602.283 46.9022 602.001 46.7713C601.725 46.6446 601.45 46.5189 601.178 46.387C600.929 46.2675 600.685 46.1397 600.437 46.0182C599.987 45.8018 599.54 45.5803 599.087 45.3732C598.758 45.214 598.451 45.0124 598.175 44.7736C597.507 44.2224 596.864 43.6425 596.246 43.0354C596.074 42.8665 595.888 42.714 595.708 42.5533C595.697 42.543 595.692 42.5244 595.684 42.51L595.759 42.4801C595.767 42.477 595.778 42.4801 595.786 42.4822C596.095 42.5399 596.402 42.611 596.692 42.7263C597.164 42.9139 597.624 43.1313 598.061 43.3899C598.513 43.6577 598.976 43.9071 599.462 44.108C599.967 44.3151 600.496 44.448 601.039 44.5356C601.121 44.545 601.203 44.5408 601.283 44.5232C601.339 44.5109 601.391 44.4855 601.435 44.449C601.553 44.3542 601.569 44.2017 601.472 44.1008C601.436 44.0616 601.391 44.0316 601.341 44.0132C601.248 43.9823 601.152 43.9637 601.055 43.9431C600.659 43.8628 600.264 43.7752 599.89 43.6289C599.514 43.4888 599.149 43.3208 598.798 43.1261C598.567 42.9942 598.339 42.8531 598.103 42.7284C597.639 42.4832 597.169 42.2493 596.665 42.0896C596.228 41.9485 595.774 41.8654 595.316 41.8423C595.072 41.831 594.827 41.8238 594.582 41.8135C594.492 41.8104 594.4 41.8094 594.31 41.798C594.213 41.7857 594.117 41.7713 594.045 41.6888C593.981 41.6167 593.89 41.5971 593.795 41.6322C593.699 41.6672 593.613 41.6445 593.528 41.6198C593.075 41.4867 592.628 41.3295 592.191 41.149C591.796 40.9841 591.401 40.8223 591.019 40.6307C590.899 40.5727 590.781 40.5091 590.667 40.4401C590.41 40.2794 590.157 40.1125 589.905 39.9476C589.631 39.7775 589.384 39.5682 589.171 39.3263C589.073 39.211 588.991 39.0791 588.903 38.9544C588.878 38.9173 588.861 38.872 588.834 38.837C588.797 38.7875 588.726 38.7473 588.721 38.6937C588.716 38.6144 588.752 38.5268 588.778 38.4444C588.801 38.3713 588.835 38.3002 588.865 38.228C588.964 37.9931 589.034 37.752 589.051 37.5007C589.058 37.4048 589.068 37.309 589.069 37.2142C589.077 36.7928 589.144 36.3766 589.232 35.9583C589.314 35.5585 589.432 35.1753 589.602 34.7992C589.934 34.0646 590.447 33.5731 591.205 33.3928C591.591 33.3001 591.97 33.2795 592.33 33.4299C592.396 33.4577 592.468 33.468 592.535 33.4928C592.774 33.5824 593.023 33.5979 593.283 33.567C593.714 33.5154 594.141 33.502 594.564 33.5597C595.01 33.6216 595.455 33.6906 595.88 33.8338C596.058 33.8925 596.23 33.9677 596.406 34.0296C596.489 34.0625 596.577 34.0833 596.666 34.0914C596.835 34.0986 596.942 33.9265 596.864 33.773C596.779 33.6132 596.641 33.4885 596.473 33.4207C596.153 33.2815 595.818 33.1785 595.476 33.1136C595.309 33.0796 595.14 33.0518 594.972 33.0209C594.434 32.9268 593.886 32.9126 593.344 32.9787C593.111 33.0065 592.889 32.9993 592.677 32.9127C592.644 32.8983 592.605 32.8983 592.574 32.8849C592.056 32.6654 591.516 32.7149 590.966 32.8633C590.903 32.8797 590.841 32.9034 590.777 32.9168C590.755 32.921 590.718 32.9137 590.733 32.8736C590.793 32.719 590.857 32.5655 590.982 32.4501C591.067 32.3708 591.148 32.2853 591.24 32.2173C591.442 32.0679 591.636 31.9082 591.813 31.7289C591.879 31.6602 591.965 31.6129 592.058 31.5929C592.295 31.5403 592.513 31.4363 592.733 31.3147C592.93 31.2045 593.15 31.1437 593.364 31.0777C593.44 31.053 593.527 31.0664 593.607 31.0777C593.731 31.0942 593.856 31.1169 593.978 31.1478C594.42 31.2611 594.864 31.3714 595.3 31.4981C595.584 31.5805 595.861 31.6805 596.135 31.7866C596.875 32.074 597.617 32.3563 598.376 32.5933C598.64 32.6757 598.909 32.7479 599.174 32.8251C599.543 32.9343 599.898 33.0807 600.241 33.2527C600.686 33.4773 601.127 33.7071 601.553 33.9677C602.01 34.2459 602.372 34.623 602.666 35.0763C602.82 35.3113 602.969 35.5503 603.13 35.777C603.445 36.222 603.823 36.6033 604.22 36.9639C604.311 37.0463 604.422 37.1102 604.528 37.1751C604.605 37.2225 604.693 37.239 604.789 37.2204C604.946 37.1905 605.048 37.0092 604.972 36.8701C604.924 36.7839 604.858 36.7088 604.779 36.6496C604.535 36.4673 604.325 36.2478 604.112 36.0314C603.854 35.7668 603.623 35.478 603.421 35.1691C603.397 35.1309 603.376 35.091 603.357 35.0496C603.353 35.0423 603.371 35.0125 603.378 35.0125C603.45 35.0125 603.522 35.0125 603.594 35.0187C604.095 35.0692 604.589 35.1752 605.066 35.335C605.311 35.4153 605.554 35.506 605.777 35.6389C606.083 35.8213 606.395 35.9943 606.694 36.187C606.934 36.3395 607.156 36.5208 607.392 36.6785C607.784 36.9422 608.165 37.2204 608.58 37.4481C608.603 37.4605 608.625 37.478 608.651 37.4842C608.897 37.548 609.1 37.6974 609.321 37.8118C609.478 37.8942 609.64 37.9684 609.799 38.0498C610.1 38.2054 610.391 38.3733 610.667 38.5722C611.116 38.8947 611.544 39.2429 611.971 39.5953C612.362 39.9188 612.752 40.2464 613.159 40.5493C613.509 40.81 613.876 41.0459 614.244 41.2808C615.027 41.7785 615.763 42.3359 616.401 43.0231C616.774 43.4249 617.186 43.7803 617.604 44.1286C617.782 44.2759 617.974 44.4068 618.165 44.5366C618.402 44.6963 618.639 44.856 618.885 44.9982C619.155 45.1527 619.431 45.297 619.714 45.4288C620.44 45.7709 621.115 46.2047 621.823 46.5828C621.853 46.5993 621.884 46.6178 621.913 46.6384C621.927 46.6487 621.935 46.6662 621.946 46.6796C621.922 46.694 621.898 46.7188 621.874 46.7188C621.748 46.7198 621.619 46.727 621.495 46.7105C621.173 46.6673 620.855 46.6127 620.535 46.5622C620.455 46.5498 620.376 46.5292 620.295 46.5251C619.833 46.4973 619.383 46.4128 618.932 46.3303C618.603 46.2668 618.27 46.2323 617.936 46.2273C617.683 46.2258 617.432 46.1918 617.187 46.1263C616.608 45.9718 616.031 45.8111 615.455 45.6473C615.197 45.5739 614.949 45.4687 614.718 45.334L613.746 44.7736C613.75 44.7694 613.753 44.7633 613.756 44.7571Z" fill="black"/>
<path d="M581.805 31.1014C581.945 31.1632 582.128 31.256 582.32 31.326C582.612 31.4342 582.909 31.5321 583.208 31.6248C583.499 31.7155 583.803 31.7526 584.114 31.7484C584.26 31.7484 584.406 31.7454 584.551 31.7361C584.995 31.7042 585.44 31.7315 585.876 31.8175C585.93 31.8278 585.984 31.8319 586.036 31.8463C586.118 31.869 586.196 31.8484 586.274 31.8051C586.416 31.7278 586.56 31.6578 586.704 31.5836C586.82 31.523 586.948 31.4869 587.079 31.4775C587.297 31.462 587.517 31.4414 587.735 31.4363C587.954 31.4311 588.169 31.4064 588.387 31.3415C588.627 31.2694 588.874 31.2312 589.119 31.1828C589.301 31.1457 589.478 31.0901 589.652 31.0149C590.022 30.8592 590.411 30.7559 590.809 30.7078C591.084 30.6707 591.354 30.7078 591.619 30.7594C591.738 30.782 591.767 30.8768 591.702 30.9963C591.613 31.1591 591.484 31.2961 591.327 31.394C590.948 31.631 590.639 31.9504 590.356 32.2986C590.287 32.3811 590.233 32.4744 590.194 32.5747C590.112 32.7839 589.986 32.9727 589.823 33.128C589.736 33.2187 589.646 33.3083 589.562 33.4021C589.493 33.4826 589.409 33.5482 589.314 33.5947C589.176 33.6586 589.098 33.7647 589.06 33.9244C589.012 34.1202 588.946 34.316 588.859 34.5014C588.684 34.8764 588.587 35.269 588.52 35.6698C588.477 35.9263 588.443 36.1839 588.398 36.4394C588.305 37.013 588.163 37.5776 587.974 38.127C587.933 38.2445 587.874 38.3599 587.809 38.4691C587.68 38.6855 587.378 38.7432 587.216 38.5783C587.142 38.4994 587.079 38.4115 587.027 38.3166C586.986 38.2446 586.956 38.1668 586.938 38.0858C586.865 37.7695 586.709 37.5078 586.522 37.2616C586.354 37.038 586.208 36.798 586.038 36.5754C585.84 36.3189 585.627 36.0767 585.423 35.8264C585.224 35.5831 585.026 35.3386 584.83 35.0928C584.724 34.9642 584.658 34.8072 584.641 34.6415C584.635 34.5797 584.605 34.5385 584.548 34.5189C584.096 34.3555 583.653 34.1681 583.22 33.9574C582.712 33.7204 582.21 33.4701 581.726 33.1878C581.397 32.9961 581.088 32.7664 580.775 32.548C580.44 32.3119 580.119 32.0563 579.814 31.7824C579.379 31.3935 578.989 30.957 578.651 30.4812C578.483 30.2463 578.321 30.0062 578.171 29.7589C577.783 29.1132 577.55 28.387 577.489 27.6365C577.432 27.1229 577.453 26.6037 577.55 26.0962C577.607 25.8221 577.67 25.5481 577.738 25.2761C577.762 25.1942 577.768 25.1079 577.753 25.0237C577.702 24.7464 577.756 24.4601 577.904 24.22C578.002 24.051 578.112 23.8883 578.234 23.7368C578.397 23.5328 578.624 23.4895 578.826 23.6101C578.894 23.6513 578.96 23.7028 579.008 23.7646C579.155 23.946 579.299 24.1314 579.431 24.3251C579.618 24.6002 579.617 24.9155 579.412 25.2009C579.326 25.33 579.259 25.4704 579.211 25.6181C579.178 25.7088 579.16 25.8046 579.132 25.8984C579.086 26.0601 579.06 26.2095 579.167 26.3548C579.215 26.4197 579.214 26.531 579.223 26.6237C579.23 26.7072 579.221 26.7947 579.218 26.8813C579.201 27.4911 579.328 28.0965 579.59 28.6472C579.715 28.911 579.851 29.1696 579.996 29.422C580.257 29.8754 580.602 30.2514 581.015 30.5543C581.26 30.7336 581.512 30.8995 581.805 31.1014Z" fill="black"/>
<path d="M294.439 39.2603H291.21V37.957H294.439C295.064 37.957 295.571 37.8574 295.958 37.6582C296.345 37.459 296.628 37.1823 296.805 36.8281C296.987 36.474 297.079 36.07 297.079 35.6162C297.079 35.2012 296.987 34.811 296.805 34.4458C296.628 34.0806 296.345 33.7873 295.958 33.5659C295.571 33.339 295.064 33.2256 294.439 33.2256H291.583V44H289.981V31.9141H294.439C295.352 31.9141 296.124 32.0718 296.755 32.3872C297.386 32.7026 297.864 33.1398 298.191 33.6987C298.517 34.2521 298.681 34.8857 298.681 35.5996C298.681 36.3743 298.517 37.0356 298.191 37.5835C297.864 38.1313 297.386 38.5492 296.755 38.8369C296.124 39.1191 295.352 39.2603 294.439 39.2603ZM308.121 31.9141H309.714V40.0903C309.714 40.9979 309.512 41.7533 309.108 42.3564C308.704 42.9596 308.168 43.4134 307.498 43.7178C306.834 44.0166 306.112 44.166 305.332 44.166C304.513 44.166 303.771 44.0166 303.107 43.7178C302.448 43.4134 301.925 42.9596 301.538 42.3564C301.156 41.7533 300.965 40.9979 300.965 40.0903V31.9141H302.551V40.0903C302.551 40.7212 302.667 41.2414 302.899 41.6509C303.132 42.0604 303.456 42.3647 303.871 42.564C304.291 42.7632 304.778 42.8628 305.332 42.8628C305.89 42.8628 306.377 42.7632 306.792 42.564C307.213 42.3647 307.54 42.0604 307.772 41.6509C308.004 41.2414 308.121 40.7212 308.121 40.0903V31.9141ZM317.195 31.9141V44H315.618V31.9141H317.195ZM321.08 31.9141V33.2256H311.742V31.9141H321.08ZM334.199 40.9453C334.199 40.6631 334.155 40.4141 334.066 40.1982C333.983 39.9769 333.834 39.7777 333.618 39.6006C333.408 39.4235 333.115 39.2547 332.738 39.0942C332.368 38.9338 331.897 38.7705 331.327 38.6045C330.729 38.4274 330.19 38.231 329.708 38.0151C329.227 37.7938 328.815 37.542 328.472 37.2598C328.129 36.9775 327.866 36.6538 327.683 36.2886C327.5 35.9233 327.409 35.5055 327.409 35.0352C327.409 34.5648 327.506 34.1304 327.7 33.7319C327.893 33.3335 328.17 32.9876 328.53 32.6943C328.895 32.3955 329.329 32.1631 329.833 31.9971C330.337 31.8311 330.898 31.748 331.518 31.748C332.426 31.748 333.195 31.9224 333.826 32.271C334.462 32.6141 334.946 33.0651 335.278 33.624C335.61 34.1774 335.776 34.7695 335.776 35.4004H334.183C334.183 34.9466 334.086 34.5454 333.892 34.1968C333.698 33.8426 333.405 33.5659 333.012 33.3667C332.619 33.1619 332.121 33.0596 331.518 33.0596C330.948 33.0596 330.478 33.1453 330.107 33.3169C329.736 33.4884 329.459 33.7209 329.277 34.0142C329.1 34.3075 329.011 34.6423 329.011 35.0186C329.011 35.2731 329.064 35.5055 329.169 35.7158C329.28 35.9206 329.448 36.1115 329.675 36.2886C329.908 36.4657 330.201 36.6289 330.555 36.7783C330.915 36.9277 331.344 37.0716 331.842 37.21C332.528 37.4036 333.12 37.6195 333.618 37.8574C334.116 38.0954 334.526 38.3638 334.847 38.6626C335.173 38.9559 335.414 39.2907 335.569 39.667C335.729 40.0378 335.81 40.4583 335.81 40.9287C335.81 41.4212 335.71 41.8667 335.511 42.2651C335.312 42.6636 335.027 43.0039 334.656 43.2861C334.285 43.5684 333.84 43.7869 333.319 43.9419C332.805 44.0913 332.229 44.166 331.593 44.166C331.034 44.166 330.483 44.0885 329.941 43.9336C329.404 43.7786 328.914 43.5462 328.472 43.2363C328.035 42.9264 327.683 42.5446 327.417 42.0908C327.157 41.6315 327.027 41.1003 327.027 40.4971H328.621C328.621 40.9121 328.701 41.269 328.862 41.5679C329.022 41.8612 329.241 42.1047 329.518 42.2983C329.8 42.492 330.118 42.6359 330.472 42.73C330.832 42.8185 331.205 42.8628 331.593 42.8628C332.152 42.8628 332.625 42.7853 333.012 42.6304C333.4 42.4754 333.693 42.2541 333.892 41.9663C334.097 41.6785 334.199 41.3382 334.199 40.9453ZM347.657 37.5752V38.3389C347.657 39.2464 347.543 40.0599 347.316 40.7793C347.09 41.4987 346.763 42.1102 346.337 42.6138C345.911 43.1174 345.399 43.502 344.801 43.7676C344.209 44.0332 343.545 44.166 342.809 44.166C342.095 44.166 341.439 44.0332 340.842 43.7676C340.25 43.502 339.735 43.1174 339.298 42.6138C338.866 42.1102 338.531 41.4987 338.293 40.7793C338.056 40.0599 337.937 39.2464 337.937 38.3389V37.5752C337.937 36.6676 338.053 35.8569 338.285 35.1431C338.523 34.4237 338.858 33.8122 339.29 33.3086C339.721 32.7995 340.233 32.4121 340.825 32.1465C341.423 31.8809 342.079 31.748 342.792 31.748C343.528 31.748 344.193 31.8809 344.785 32.1465C345.382 32.4121 345.894 32.7995 346.32 33.3086C346.752 33.8122 347.081 34.4237 347.308 35.1431C347.541 35.8569 347.657 36.6676 347.657 37.5752ZM346.071 38.3389V37.5586C346.071 36.8392 345.997 36.2028 345.847 35.6494C345.703 35.096 345.49 34.6312 345.208 34.2549C344.926 33.8786 344.58 33.5936 344.17 33.3999C343.766 33.2062 343.307 33.1094 342.792 33.1094C342.294 33.1094 341.843 33.2062 341.439 33.3999C341.041 33.5936 340.698 33.8786 340.41 34.2549C340.128 34.6312 339.909 35.096 339.754 35.6494C339.599 36.2028 339.522 36.8392 339.522 37.5586V38.3389C339.522 39.0638 339.599 39.7057 339.754 40.2646C339.909 40.818 340.131 41.2856 340.418 41.6675C340.712 42.0438 341.058 42.3288 341.456 42.5225C341.86 42.7161 342.311 42.813 342.809 42.813C343.329 42.813 343.791 42.7161 344.195 42.5225C344.599 42.3288 344.94 42.0438 345.216 41.6675C345.499 41.2856 345.712 40.818 345.855 40.2646C345.999 39.7057 346.071 39.0638 346.071 38.3389ZM351.062 31.9141H352.614L356.574 41.7671L360.525 31.9141H362.085L357.171 44H355.959L351.062 31.9141ZM350.556 31.9141H351.925L352.149 39.2852V44H350.556V31.9141ZM361.214 31.9141H362.583V44H360.99V39.2852L361.214 31.9141ZM373.576 42.6968V44H367.176V42.6968H373.576ZM367.5 31.9141V44H365.897V31.9141H367.5ZM372.729 37.1104V38.4136H367.176V37.1104H372.729ZM373.493 31.9141V33.2256H367.176V31.9141H373.493ZM382.378 31.9141V44H380.776V31.9141H382.378ZM387.442 37.3511V38.6626H382.03V37.3511H387.442ZM388.264 31.9141V33.2256H382.03V31.9141H388.264ZM392.391 31.9141V44H390.789V31.9141H392.391ZM395.805 31.9141H399.806C400.713 31.9141 401.48 32.0524 402.105 32.3291C402.736 32.6058 403.215 33.0153 403.541 33.5576C403.873 34.0944 404.039 34.7557 404.039 35.5415C404.039 36.0949 403.926 36.6012 403.699 37.0605C403.477 37.5143 403.156 37.9017 402.736 38.2227C402.321 38.5381 401.823 38.7733 401.242 38.9282L400.793 39.1025H397.033L397.017 37.7993H399.855C400.431 37.7993 400.91 37.6997 401.292 37.5005C401.673 37.2957 401.961 37.0218 402.155 36.6787C402.348 36.3356 402.445 35.9565 402.445 35.5415C402.445 35.0767 402.354 34.6699 402.171 34.3213C401.989 33.9727 401.701 33.7043 401.308 33.5161C400.921 33.3224 400.42 33.2256 399.806 33.2256H397.407V44H395.805V31.9141ZM402.869 44L399.93 38.5215L401.599 38.5132L404.579 43.9004V44H402.869ZM414.458 42.6968V44H408.059V42.6968H414.458ZM408.382 31.9141V44H406.78V31.9141H408.382ZM413.612 37.1104V38.4136H408.059V37.1104H413.612ZM414.375 31.9141V33.2256H408.059V31.9141H414.375ZM423.377 31.9141V44H421.775V31.9141H423.377ZM436.088 31.9141V44H434.478L428.393 34.6782V44H426.791V31.9141H428.393L434.502 41.2607V31.9141H436.088ZM444.7 31.9141L447.837 37.9819L450.983 31.9141H452.801L448.634 39.4844V44H447.032V39.4844L442.865 31.9141H444.7ZM463.91 37.5752V38.3389C463.91 39.2464 463.796 40.0599 463.569 40.7793C463.342 41.4987 463.016 42.1102 462.59 42.6138C462.164 43.1174 461.652 43.502 461.054 43.7676C460.462 44.0332 459.798 44.166 459.062 44.166C458.348 44.166 457.692 44.0332 457.095 43.7676C456.503 43.502 455.988 43.1174 455.551 42.6138C455.119 42.1102 454.784 41.4987 454.546 40.7793C454.308 40.0599 454.189 39.2464 454.189 38.3389V37.5752C454.189 36.6676 454.306 35.8569 454.538 35.1431C454.776 34.4237 455.111 33.8122 455.542 33.3086C455.974 32.7995 456.486 32.4121 457.078 32.1465C457.676 31.8809 458.332 31.748 459.045 31.748C459.781 31.748 460.445 31.8809 461.038 32.1465C461.635 32.4121 462.147 32.7995 462.573 33.3086C463.005 33.8122 463.334 34.4237 463.561 35.1431C463.793 35.8569 463.91 36.6676 463.91 37.5752ZM462.324 38.3389V37.5586C462.324 36.8392 462.25 36.2028 462.1 35.6494C461.956 35.096 461.743 34.6312 461.461 34.2549C461.179 33.8786 460.833 33.5936 460.423 33.3999C460.019 33.2062 459.56 33.1094 459.045 33.1094C458.547 33.1094 458.096 33.2062 457.692 33.3999C457.294 33.5936 456.951 33.8786 456.663 34.2549C456.381 34.6312 456.162 35.096 456.007 35.6494C455.852 36.2028 455.775 36.8392 455.775 37.5586V38.3389C455.775 39.0638 455.852 39.7057 456.007 40.2646C456.162 40.818 456.384 41.2856 456.671 41.6675C456.965 42.0438 457.311 42.3288 457.709 42.5225C458.113 42.7161 458.564 42.813 459.062 42.813C459.582 42.813 460.044 42.7161 460.448 42.5225C460.852 42.3288 461.193 42.0438 461.469 41.6675C461.751 41.2856 461.965 40.818 462.108 40.2646C462.252 39.7057 462.324 39.0638 462.324 38.3389ZM473.723 31.9141H475.317V40.0903C475.317 40.9979 475.115 41.7533 474.711 42.3564C474.307 42.9596 473.77 43.4134 473.101 43.7178C472.437 44.0166 471.714 44.166 470.934 44.166C470.115 44.166 469.374 44.0166 468.709 43.7178C468.051 43.4134 467.528 42.9596 467.141 42.3564C466.759 41.7533 466.568 40.9979 466.568 40.0903V31.9141H468.153V40.0903C468.153 40.7212 468.27 41.2414 468.502 41.6509C468.734 42.0604 469.058 42.3647 469.473 42.564C469.894 42.7632 470.381 42.8628 470.934 42.8628C471.493 42.8628 471.98 42.7632 472.395 42.564C472.816 42.3647 473.142 42.0604 473.375 41.6509C473.607 41.2414 473.723 40.7212 473.723 40.0903V31.9141ZM478.332 31.9141H482.333C483.241 31.9141 484.007 32.0524 484.632 32.3291C485.263 32.6058 485.742 33.0153 486.068 33.5576C486.4 34.0944 486.566 34.7557 486.566 35.5415C486.566 36.0949 486.453 36.6012 486.226 37.0605C486.005 37.5143 485.684 37.9017 485.263 38.2227C484.848 38.5381 484.35 38.7733 483.769 38.9282L483.321 39.1025H479.561L479.544 37.7993H482.383C482.958 37.7993 483.437 37.6997 483.819 37.5005C484.201 37.2957 484.488 37.0218 484.682 36.6787C484.876 36.3356 484.973 35.9565 484.973 35.5415C484.973 35.0767 484.881 34.6699 484.699 34.3213C484.516 33.9727 484.228 33.7043 483.835 33.5161C483.448 33.3224 482.947 33.2256 482.333 33.2256H479.934V44H478.332V31.9141ZM485.396 44L482.458 38.5215L484.126 38.5132L487.106 43.9004V44H485.396ZM498.333 38.3472H495.27L495.253 37.0605H498.034C498.493 37.0605 498.894 36.9831 499.237 36.8281C499.58 36.6732 499.846 36.4518 500.034 36.1641C500.228 35.8708 500.325 35.5221 500.325 35.1182C500.325 34.6755 500.239 34.3158 500.067 34.0391C499.901 33.7568 499.644 33.5521 499.295 33.4248C498.952 33.292 498.515 33.2256 497.984 33.2256H495.626V44H494.024V31.9141H497.984C498.604 31.9141 499.157 31.9777 499.644 32.105C500.131 32.2267 500.543 32.4204 500.881 32.686C501.224 32.9461 501.484 33.2782 501.661 33.6821C501.838 34.0861 501.927 34.5703 501.927 35.1348C501.927 35.6328 501.799 36.0838 501.545 36.4878C501.29 36.8862 500.936 37.2127 500.482 37.4673C500.034 37.7218 499.508 37.8851 498.905 37.957L498.333 38.3472ZM498.258 44H494.639L495.543 42.6968H498.258C498.767 42.6968 499.199 42.6082 499.553 42.4312C499.912 42.2541 500.186 42.005 500.375 41.6841C500.563 41.3576 500.657 40.973 500.657 40.5303C500.657 40.082 500.576 39.6947 500.416 39.3682C500.256 39.0417 500.004 38.7899 499.661 38.6128C499.318 38.4357 498.875 38.3472 498.333 38.3472H496.05L496.066 37.0605H499.188L499.528 37.5254C500.109 37.5752 500.601 37.7412 501.005 38.0234C501.409 38.3001 501.716 38.6543 501.927 39.0859C502.143 39.5176 502.25 39.9935 502.25 40.5137C502.25 41.2663 502.084 41.9027 501.752 42.4229C501.426 42.9375 500.964 43.3304 500.366 43.6016C499.769 43.8672 499.066 44 498.258 44ZM512.794 42.6968V44H506.395V42.6968H512.794ZM506.718 31.9141V44H505.116V31.9141H506.718ZM511.948 37.1104V38.4136H506.395V37.1104H511.948ZM512.711 31.9141V33.2256H506.395V31.9141H512.711ZM522.608 42.6968V44H516.565V42.6968H522.608ZM516.88 31.9141V44H515.278V31.9141H516.88ZM532.272 42.6968V44H526.229V42.6968H532.272ZM526.544 31.9141V44H524.942V31.9141H526.544ZM533.17 31.9141L536.308 37.9819L539.454 31.9141H541.272L537.105 39.4844V44H535.503V39.4844L531.336 31.9141H533.17Z" fill="black"/>
</g>
<defs>
<clipPath id="clip0_1_173">
<rect width="697" height="78" fill="white"/>
</clipPath>
</defs>
</svg>
